<svg width="383" height="296" viewBox="0 0 383 296" fill="none" xmlns="http://www.w3.org/2000/svg">
<path d="M0 8C0 3.58172 3.58172 0 8 0H374.5C378.918 0 382.5 3.58172 382.5 8V288C382.5 292.418 378.918 296 374.5 296H8C3.58172 296 0 292.418 0 288V8Z" fill="#CCE4FF"/>
<path d="M13.218 33V23.102H15.066L18.034 28.548L20.96 23.102H22.766V33H21.548V24.39L18.286 30.41H17.726L14.436 24.39V33H13.218ZM24.1302 33L27.8122 23.102H29.5622L33.2302 33H31.9142L31.1302 30.872H26.2302L25.4462 33H24.1302ZM26.6362 29.766H30.7242L28.6802 24.166L26.6362 29.766ZM34.5871 33V23.102H35.8051V33H34.5871ZM38.2375 33V23.102H39.7915L44.9575 31.348V23.102H46.1755V33H44.6495L39.4555 24.782V33H38.2375ZM56.2519 33.112C55.3279 33.112 54.5766 32.9207 53.9979 32.538C53.4193 32.1553 52.9946 31.6373 52.7239 30.984C52.4533 30.3213 52.3179 29.57 52.3179 28.73V23.102H53.5359V28.716C53.5359 29.3133 53.6199 29.864 53.7879 30.368C53.9653 30.8627 54.2546 31.2593 54.6559 31.558C55.0573 31.8567 55.5939 32.006 56.2659 32.006C56.9473 32.006 57.4793 31.8567 57.8619 31.558C58.2539 31.2593 58.5339 30.8627 58.7019 30.368C58.8699 29.864 58.9539 29.3133 58.9539 28.716V23.102H60.1859V28.73C60.1859 29.5607 60.0506 30.3073 59.7799 30.97C59.5093 31.6327 59.0846 32.1553 58.5059 32.538C57.9273 32.9207 57.1759 33.112 56.2519 33.112ZM66.1161 33.112C65.4908 33.112 64.8981 33.028 64.3381 32.86C63.7875 32.6827 63.3161 32.398 62.9241 32.006C62.5321 31.6047 62.2661 31.0727 62.1261 30.41H63.4001C63.5308 30.83 63.7408 31.1567 64.0301 31.39C64.3288 31.6233 64.6695 31.7867 65.0521 31.88C65.4348 31.964 65.8175 32.006 66.2001 32.006C66.5828 32.006 66.9375 31.9547 67.2641 31.852C67.6001 31.74 67.8708 31.5627 68.0761 31.32C68.2908 31.0773 68.3981 30.7647 68.3981 30.382C68.3981 30.0833 68.3421 29.8407 68.2301 29.654C68.1275 29.4673 67.9781 29.318 67.7821 29.206C67.5955 29.0847 67.3715 28.9867 67.1101 28.912C66.7648 28.8 66.3961 28.7067 66.0041 28.632C65.6121 28.5573 65.2248 28.4687 64.8421 28.366C64.4688 28.2633 64.1188 28.1327 63.7921 27.974C63.6148 27.8807 63.4421 27.7687 63.2741 27.638C63.1155 27.498 62.9755 27.3393 62.8541 27.162C62.7421 26.9753 62.6488 26.7653 62.5741 26.532C62.5088 26.2987 62.4761 26.042 62.4761 25.762C62.4761 25.342 62.5415 24.978 62.6721 24.67C62.8028 24.362 62.9801 24.1007 63.2041 23.886C63.4281 23.6713 63.6895 23.4987 63.9881 23.368C64.2868 23.2373 64.6041 23.144 64.9401 23.088C65.2855 23.0227 65.6308 22.99 65.9761 22.99C66.5455 22.99 67.0775 23.0787 67.5721 23.256C68.0761 23.424 68.4915 23.6993 68.8181 24.082C69.1541 24.4647 69.3361 24.9827 69.3641 25.636H68.1741C68.1275 25.244 67.9968 24.936 67.7821 24.712C67.5675 24.488 67.3015 24.3293 66.9841 24.236C66.6668 24.1427 66.3308 24.096 65.9761 24.096C65.7148 24.096 65.4488 24.1193 65.1781 24.166C64.9168 24.2127 64.6741 24.2967 64.4501 24.418C64.2355 24.53 64.0628 24.6887 63.9321 24.894C63.8015 25.09 63.7361 25.342 63.7361 25.65C63.7361 25.8927 63.7781 26.1073 63.8621 26.294C63.9555 26.4807 64.0768 26.6393 64.2261 26.77C64.3848 26.8913 64.5575 26.994 64.7441 27.078C65.1921 27.2647 65.6868 27.4047 66.2281 27.498C66.7788 27.582 67.2921 27.708 67.7681 27.876C68.0481 27.9693 68.3048 28.086 68.5381 28.226C68.7715 28.366 68.9675 28.5293 69.1261 28.716C69.2941 28.9027 69.4201 29.1173 69.5041 29.36C69.5975 29.5933 69.6441 29.8593 69.6441 30.158C69.6441 30.6993 69.5508 31.1613 69.3641 31.544C69.1775 31.9173 68.9208 32.2207 68.5941 32.454C68.2675 32.6873 67.8895 32.8553 67.4601 32.958C67.0401 33.0607 66.5921 33.112 66.1161 33.112ZM71.6789 33V23.102H78.3289V24.208H72.8969V27.54H77.7829V28.66H72.8969V31.894H78.3289V33H71.6789ZM80.2239 33V23.102H83.9339C84.4845 23.102 84.9745 23.158 85.4039 23.27C85.8425 23.382 86.2159 23.5593 86.5239 23.802C86.8319 24.0447 87.0652 24.3667 87.2239 24.768C87.3919 25.16 87.4759 25.636 87.4759 26.196C87.4759 26.7467 87.3732 27.218 87.1679 27.61C86.9625 27.9927 86.6919 28.3053 86.3559 28.548C86.0199 28.7907 85.6559 28.968 85.2639 29.08L87.3359 33H86.0059L84.0319 29.29H81.4419V33H80.2239ZM81.4419 28.184H83.5419C83.9059 28.184 84.2465 28.156 84.5639 28.1C84.8905 28.044 85.1752 27.946 85.4179 27.806C85.6699 27.6567 85.8659 27.4513 86.0059 27.19C86.1459 26.9193 86.2205 26.574 86.2299 26.154C86.2392 25.678 86.1505 25.3 85.9639 25.02C85.7772 24.7307 85.5019 24.5253 85.1379 24.404C84.7739 24.2733 84.3305 24.208 83.8079 24.208H81.4419V28.184Z" fill="#063B27"/>
<path d="M14.496 88.976V83.568H16.064L16.32 84.816C16.576 85.9467 17.184 86.8533 18.144 87.536C19.104 88.1973 20.3413 88.528 21.856 88.528C23.264 88.528 24.384 88.176 25.216 87.472C26.048 86.768 26.464 85.808 26.464 84.592C26.464 83.696 26.2187 82.9387 25.728 82.32C25.2587 81.744 24.6933 81.2747 24.032 80.912C23.3707 80.528 22.3573 80.08 20.992 79.568C19.7547 79.12 18.6773 78.6613 17.76 78.192C15.84 77.168 14.88 75.632 14.88 73.584C14.88 71.6 15.6053 70.064 17.056 68.976C18.5067 67.888 20.2453 67.344 22.272 67.344C24.6827 67.344 26.6987 67.696 28.32 68.4V73.328H26.752C26.6453 72.0267 26.1653 71.0133 25.312 70.288C24.4587 69.5413 23.2853 69.168 21.792 69.168C20.5973 69.168 19.616 69.4987 18.848 70.16C18.08 70.8 17.696 71.6 17.696 72.56C17.696 73.3067 17.92 73.9573 18.368 74.512C18.7733 74.9813 19.2747 75.376 19.872 75.696C20.4907 75.9947 21.4613 76.4 22.784 76.912C24.4053 77.5093 25.5787 78.0107 26.304 78.416C28.4587 79.5253 29.536 81.3173 29.536 83.792C29.536 85.7547 28.832 87.3653 27.424 88.624C26.0373 89.8613 24.2347 90.48 22.016 90.48C19.3067 90.48 16.8 89.9787 14.496 88.976ZM45.4648 79.984C45.4648 80.0267 45.4434 80.368 45.4008 81.008L34.8728 81.744C34.9154 83.7493 35.3954 85.3173 36.3128 86.448C37.2514 87.5573 38.5848 88.112 40.3128 88.112C42.0834 88.112 43.6834 87.6747 45.1128 86.8V88.528C43.5768 89.7867 41.6248 90.416 39.2568 90.416C36.9954 90.416 35.2461 89.7333 34.0088 88.368C32.7714 87.0027 32.1528 85.2 32.1528 82.96C32.1528 80.144 32.8781 77.9573 34.3288 76.4C35.8008 74.8427 37.6141 74.064 39.7688 74.064C41.6248 74.064 43.0328 74.5867 43.9928 75.632C44.9741 76.6773 45.4648 78.128 45.4648 79.984ZM42.4888 78.96C42.4888 78.064 42.2114 77.3173 41.6568 76.72C41.1234 76.1013 40.3661 75.792 39.3848 75.792C38.2114 75.792 37.2301 76.1653 36.4408 76.912C35.6514 77.6373 35.1608 78.6933 34.9688 80.08L41.6568 79.632C41.9981 79.6107 42.2221 79.5573 42.3288 79.472C42.4354 79.3867 42.4888 79.216 42.4888 78.96ZM63.4228 88.144L64.8948 88.336V90H58.0468V88.336L59.4868 88.144C59.7428 88.1227 59.9134 88.0693 59.9988 87.984C60.0841 87.8987 60.1268 87.728 60.1268 87.472V79.216C60.1268 78.2133 59.9134 77.4987 59.4868 77.072C59.0601 76.624 58.3454 76.4 57.3428 76.4C56.0628 76.4 54.6441 77.008 53.0868 78.224V87.472C53.0868 87.728 53.1188 87.8987 53.1828 87.984C53.2681 88.0693 53.4281 88.1227 53.6628 88.144L55.0068 88.336V90H48.3188V88.336L49.7908 88.144C50.0468 88.1227 50.2174 88.0693 50.3028 87.984C50.3881 87.8987 50.4308 87.728 50.4308 87.472V77.904C50.4308 77.584 50.2601 77.3813 49.9188 77.296L48.3188 76.816V75.536L52.7348 74.192C52.8841 74.9387 52.9908 75.7173 53.0548 76.528C55.2308 74.8853 57.2148 74.064 59.0068 74.064C60.1588 74.064 61.0654 74.3947 61.7268 75.056C62.4094 75.7173 62.7508 76.7307 62.7508 78.096V87.472C62.7508 87.7067 62.7934 87.8773 62.8787 87.984C62.9641 88.0693 63.1454 88.1227 63.4228 88.144ZM67.475 90V88.336L68.947 88.144C69.203 88.1227 69.3737 88.0693 69.459 87.984C69.5443 87.8987 69.587 87.728 69.587 87.472V77.904C69.587 77.584 69.4163 77.3813 69.075 77.296L67.475 76.816V75.536L72.243 74.192V87.472C72.243 87.728 72.275 87.8987 72.339 87.984C72.403 88.048 72.5843 88.1013 72.883 88.144L74.355 88.336V90H67.475ZM69.395 71.12C69.0537 70.8 68.883 70.384 68.883 69.872C68.883 69.36 69.0537 68.944 69.395 68.624C69.7577 68.2827 70.227 68.112 70.803 68.112C71.315 68.112 71.731 68.272 72.051 68.592C72.3923 68.912 72.563 69.3067 72.563 69.776C72.563 70.3307 72.403 70.768 72.083 71.088C71.763 71.408 71.315 71.568 70.739 71.568C70.1843 71.568 69.7363 71.4187 69.395 71.12ZM76.5278 82.512C76.5278 79.952 77.2851 77.8933 78.7998 76.336C80.3358 74.7787 82.3304 74 84.7838 74C87.0238 74 88.8051 74.7467 90.1278 76.24C91.4504 77.712 92.1118 79.632 92.1118 82C92.1118 84.5813 91.3651 86.6507 89.8718 88.208C88.3784 89.744 86.3944 90.512 83.9198 90.512C81.6371 90.512 79.8344 89.776 78.5118 88.304C77.1891 86.8107 76.5278 84.88 76.5278 82.512ZM89.1038 82.8C89.1038 80.6027 88.6771 78.8853 87.8238 77.648C86.9704 76.4107 85.7758 75.792 84.2398 75.792C82.7678 75.792 81.6158 76.3147 80.7838 77.36C79.9518 78.384 79.5358 79.824 79.5358 81.68C79.5358 83.8987 79.9624 85.6267 80.8158 86.864C81.6904 88.1013 82.8958 88.72 84.4318 88.72C85.8824 88.72 87.0238 88.1973 87.8558 87.152C88.6878 86.1067 89.1038 84.656 89.1038 82.8ZM99.618 79.664V87.472C99.618 87.728 99.6607 87.8987 99.746 87.984C99.8527 88.0693 100.087 88.1227 100.45 88.144L102.306 88.336V90H94.85V88.336L96.322 88.144C96.5993 88.1227 96.77 88.0693 96.834 87.984C96.9193 87.8987 96.962 87.728 96.962 87.472L96.994 77.904C96.994 77.584 96.8127 77.3813 96.45 77.296L94.85 76.816V75.536L99.266 74.192C99.5007 75.3653 99.618 76.3787 99.618 77.232V78.32C102.071 75.4613 104.066 74.0747 105.602 74.16V77.2C103.319 77.6907 101.325 78.512 99.618 79.664Z" fill="#063B27"/>
<path d="M22.5151 234.416C22.2538 234.416 22.0018 234.36 21.7591 234.248C21.5258 234.136 21.3298 233.968 21.1711 233.744C21.0218 233.52 20.9471 233.24 20.9471 232.904C20.9471 232.419 21.0964 232.041 21.3951 231.77C21.7031 231.49 22.0811 231.35 22.5291 231.35C22.8091 231.35 23.0658 231.415 23.2991 231.546C23.5324 231.667 23.7144 231.845 23.8451 232.078C23.9851 232.302 24.0551 232.577 24.0551 232.904C24.0551 233.361 23.9011 233.73 23.5931 234.01C23.2944 234.281 22.9351 234.416 22.5151 234.416ZM34.218 238V228.102H35.436V236.894H40.868V238H34.218ZM45.3338 238.084C44.5591 238.084 43.9104 237.925 43.3878 237.608C42.8651 237.281 42.4731 236.833 42.2118 236.264C41.9598 235.695 41.8338 235.046 41.8338 234.318C41.8338 233.581 41.9644 232.932 42.2258 232.372C42.4871 231.803 42.8791 231.355 43.4018 231.028C43.9244 230.701 44.5778 230.538 45.3618 230.538C46.1364 230.538 46.7804 230.701 47.2938 231.028C47.8164 231.355 48.2038 231.803 48.4558 232.372C48.7171 232.932 48.8478 233.581 48.8478 234.318C48.8478 235.046 48.7171 235.695 48.4558 236.264C48.1944 236.833 47.8024 237.281 47.2798 237.608C46.7664 237.925 46.1178 238.084 45.3338 238.084ZM45.3338 237.034C45.8751 237.034 46.3138 236.913 46.6498 236.67C46.9951 236.427 47.2471 236.101 47.4058 235.69C47.5738 235.279 47.6578 234.822 47.6578 234.318C47.6578 233.814 47.5738 233.357 47.4058 232.946C47.2471 232.535 46.9951 232.209 46.6498 231.966C46.3138 231.723 45.8751 231.602 45.3338 231.602C44.8018 231.602 44.3631 231.723 44.0178 231.966C43.6818 232.209 43.4298 232.535 43.2618 232.946C43.1031 233.357 43.0238 233.814 43.0238 234.318C43.0238 234.822 43.1031 235.279 43.2618 235.69C43.4298 236.101 43.6818 236.427 44.0178 236.67C44.3631 236.913 44.8018 237.034 45.3338 237.034ZM51.966 238L49.67 230.622H51.014L52.778 236.852L54.598 230.622H56.208L58.042 236.852L59.778 230.622H61.136L58.84 238H57.216L55.396 232.022L53.576 238H51.966ZM68.9662 238.084C68.2289 238.084 67.6222 237.921 67.1462 237.594C66.6702 237.258 66.3156 236.81 66.0822 236.25C65.8489 235.681 65.7322 235.041 65.7322 234.332C65.7322 233.623 65.8489 232.983 66.0822 232.414C66.3156 231.835 66.6749 231.378 67.1602 231.042C67.6456 230.706 68.2662 230.538 69.0222 230.538C69.3116 230.538 69.6009 230.575 69.8902 230.65C70.1889 230.715 70.4689 230.823 70.7302 230.972C70.9916 231.112 71.2156 231.303 71.4022 231.546V228.102H72.5922V238H71.4582L71.4022 236.894C71.2342 237.174 71.0196 237.403 70.7582 237.58C70.5062 237.748 70.2262 237.874 69.9182 237.958C69.6102 238.042 69.2929 238.084 68.9662 238.084ZM69.1342 237.034C69.6289 237.034 70.0442 236.908 70.3802 236.656C70.7162 236.404 70.9729 236.068 71.1502 235.648C71.3276 235.228 71.4162 234.771 71.4162 234.276C71.4162 233.763 71.3276 233.305 71.1502 232.904C70.9822 232.503 70.7302 232.185 70.3942 231.952C70.0582 231.719 69.6336 231.602 69.1202 231.602C68.5882 231.602 68.1589 231.723 67.8322 231.966C67.5149 232.209 67.2816 232.54 67.1322 232.96C66.9922 233.371 66.9222 233.833 66.9222 234.346C66.9222 234.719 66.9596 235.069 67.0342 235.396C67.1182 235.713 67.2442 235.998 67.4122 236.25C67.5896 236.493 67.8182 236.684 68.0982 236.824C68.3782 236.964 68.7236 237.034 69.1342 237.034ZM74.4614 238V230.622H75.6514V238H74.4614ZM75.0494 229.53C74.8068 229.53 74.6108 229.455 74.4614 229.306C74.3214 229.157 74.2514 228.965 74.2514 228.732C74.2514 228.499 74.3261 228.312 74.4754 228.172C74.6248 228.023 74.8161 227.948 75.0494 227.948C75.2641 227.948 75.4508 228.023 75.6094 228.172C75.7774 228.321 75.8614 228.508 75.8614 228.732C75.8614 228.965 75.7821 229.157 75.6234 229.306C75.4648 229.455 75.2734 229.53 75.0494 229.53ZM80.7299 241.304C80.2259 241.304 79.7593 241.225 79.3299 241.066C78.9006 240.917 78.5366 240.679 78.2379 240.352C77.9393 240.025 77.7386 239.61 77.6359 239.106H78.8679C78.9426 239.386 79.0826 239.61 79.2879 239.778C79.4933 239.946 79.7313 240.063 80.0019 240.128C80.2726 240.203 80.5386 240.24 80.7999 240.24C81.3039 240.24 81.7099 240.137 82.0179 239.932C82.3353 239.736 82.5639 239.461 82.7039 239.106C82.8439 238.761 82.9139 238.364 82.9139 237.916V236.894C82.7553 237.174 82.5453 237.403 82.2839 237.58C82.0226 237.757 81.7379 237.888 81.4299 237.972C81.1219 238.047 80.8046 238.084 80.4779 238.084C79.7313 238.084 79.1199 237.921 78.6439 237.594C78.1679 237.258 77.8133 236.81 77.5799 236.25C77.3559 235.681 77.2439 235.041 77.2439 234.332C77.2439 233.623 77.3606 232.983 77.5939 232.414C77.8273 231.835 78.1866 231.378 78.6719 231.042C79.1573 230.706 79.7779 230.538 80.5339 230.538C80.9633 230.538 81.3973 230.617 81.8359 230.776C82.2746 230.935 82.6339 231.191 82.9139 231.546L82.9699 230.622H84.1039V237.944C84.1039 238.635 83.9779 239.232 83.7259 239.736C83.4833 240.24 83.1099 240.627 82.6059 240.898C82.1113 241.169 81.4859 241.304 80.7299 241.304ZM80.6459 237.034C81.1406 237.034 81.5559 236.908 81.8919 236.656C82.2279 236.404 82.4846 236.068 82.6619 235.648C82.8393 235.228 82.9279 234.771 82.9279 234.276C82.9279 233.763 82.8393 233.305 82.6619 232.904C82.4939 232.503 82.2419 232.185 81.9059 231.952C81.5699 231.719 81.1453 231.602 80.6319 231.602C80.0999 231.602 79.6706 231.723 79.3439 231.966C79.0266 232.209 78.7933 232.535 78.6439 232.946C78.5039 233.357 78.4339 233.814 78.4339 234.318C78.4339 234.841 78.5086 235.307 78.6579 235.718C78.8073 236.129 79.0453 236.451 79.3719 236.684C79.6986 236.917 80.1233 237.034 80.6459 237.034ZM85.9732 238V230.622H87.1632V238H85.9732ZM86.5612 229.53C86.3185 229.53 86.1225 229.455 85.9732 229.306C85.8332 229.157 85.7632 228.965 85.7632 228.732C85.7632 228.499 85.8378 228.312 85.9872 228.172C86.1365 228.023 86.3278 227.948 86.5612 227.948C86.7758 227.948 86.9625 228.023 87.1212 228.172C87.2892 228.321 87.3732 228.508 87.3732 228.732C87.3732 228.965 87.2938 229.157 87.1352 229.306C86.9765 229.455 86.7852 229.53 86.5612 229.53ZM91.8077 238.084C91.033 238.084 90.487 237.874 90.1697 237.454C89.8617 237.034 89.7077 236.437 89.7077 235.662V231.672H88.5037V230.622H89.7077V228.41H90.8977V230.622H93.1657V231.672H90.8977V235.508C90.8977 235.788 90.921 236.045 90.9677 236.278C91.0143 236.502 91.1123 236.684 91.2617 236.824C91.411 236.955 91.635 237.025 91.9337 237.034C92.1483 237.034 92.335 236.997 92.4937 236.922C92.6617 236.847 92.8017 236.759 92.9137 236.656L93.4317 237.524C93.273 237.655 93.105 237.762 92.9277 237.846C92.7597 237.93 92.5823 237.991 92.3957 238.028C92.2183 238.065 92.0223 238.084 91.8077 238.084ZM96.9524 238.084C96.6164 238.084 96.2898 238.042 95.9724 237.958C95.6644 237.865 95.3844 237.729 95.1324 237.552C94.8898 237.365 94.6938 237.137 94.5444 236.866C94.4044 236.586 94.3344 236.264 94.3344 235.9C94.3344 235.48 94.4091 235.125 94.5584 234.836C94.7171 234.547 94.9271 234.318 95.1884 234.15C95.4498 233.982 95.7531 233.861 96.0984 233.786C96.4438 233.711 96.8031 233.674 97.1764 233.674H99.3464C99.3464 233.254 99.2858 232.89 99.1644 232.582C99.0524 232.274 98.8658 232.036 98.6044 231.868C98.3431 231.691 97.9978 231.602 97.5684 231.602C97.3071 231.602 97.0644 231.63 96.8404 231.686C96.6164 231.742 96.4251 231.831 96.2664 231.952C96.1078 232.073 95.9911 232.237 95.9164 232.442H94.6424C94.7078 232.106 94.8338 231.821 95.0204 231.588C95.2164 231.345 95.4498 231.149 95.7204 231C96.0004 230.841 96.2991 230.725 96.6164 230.65C96.9338 230.575 97.2511 230.538 97.5684 230.538C98.6324 230.538 99.3884 230.851 99.8364 231.476C100.284 232.101 100.508 232.946 100.508 234.01V238H99.5144L99.4444 237.062C99.2391 237.342 98.9918 237.557 98.7024 237.706C98.4131 237.855 98.1144 237.953 97.8064 238C97.5078 238.056 97.2231 238.084 96.9524 238.084ZM97.0644 237.034C97.5311 237.034 97.9324 236.959 98.2684 236.81C98.6138 236.651 98.8798 236.423 99.0664 236.124C99.2531 235.825 99.3464 235.461 99.3464 235.032V234.668H98.0444C97.7364 234.668 97.4331 234.673 97.1344 234.682C96.8358 234.691 96.5651 234.729 96.3224 234.794C96.0798 234.859 95.8838 234.971 95.7344 235.13C95.5944 235.289 95.5244 235.517 95.5244 235.816C95.5244 236.096 95.5944 236.325 95.7344 236.502C95.8838 236.679 96.0751 236.815 96.3084 236.908C96.5511 236.992 96.8031 237.034 97.0644 237.034ZM102.352 238V228.102H103.542V238H102.352ZM112.338 238.084C111.563 238.084 110.919 237.925 110.406 237.608C109.902 237.281 109.524 236.833 109.272 236.264C109.029 235.695 108.908 235.051 108.908 234.332C108.908 233.632 109.034 232.997 109.286 232.428C109.547 231.849 109.939 231.392 110.462 231.056C110.994 230.711 111.666 230.538 112.478 230.538C112.982 230.538 113.43 230.622 113.822 230.79C114.223 230.958 114.555 231.205 114.816 231.532C115.077 231.849 115.259 232.251 115.362 232.736H114.144C114.004 232.325 113.78 232.036 113.472 231.868C113.173 231.691 112.819 231.602 112.408 231.602C111.848 231.602 111.4 231.733 111.064 231.994C110.728 232.255 110.481 232.596 110.322 233.016C110.173 233.427 110.098 233.865 110.098 234.332C110.098 234.817 110.177 235.265 110.336 235.676C110.495 236.087 110.742 236.418 111.078 236.67C111.414 236.913 111.848 237.034 112.38 237.034C112.772 237.034 113.141 236.95 113.486 236.782C113.841 236.614 114.074 236.315 114.186 235.886H115.418C115.325 236.39 115.124 236.805 114.816 237.132C114.517 237.459 114.149 237.701 113.71 237.86C113.281 238.009 112.823 238.084 112.338 238.084ZM120.146 238.084C119.372 238.084 118.723 237.925 118.2 237.608C117.678 237.281 117.286 236.833 117.024 236.264C116.772 235.695 116.646 235.046 116.646 234.318C116.646 233.581 116.777 232.932 117.038 232.372C117.3 231.803 117.692 231.355 118.214 231.028C118.737 230.701 119.39 230.538 120.174 230.538C120.949 230.538 121.593 230.701 122.106 231.028C122.629 231.355 123.016 231.803 123.268 232.372C123.53 232.932 123.66 233.581 123.66 234.318C123.66 235.046 123.53 235.695 123.268 236.264C123.007 236.833 122.615 237.281 122.092 237.608C121.579 237.925 120.93 238.084 120.146 238.084ZM120.146 237.034C120.688 237.034 121.126 236.913 121.462 236.67C121.808 236.427 122.06 236.101 122.218 235.69C122.386 235.279 122.47 234.822 122.47 234.318C122.47 233.814 122.386 233.357 122.218 232.946C122.06 232.535 121.808 232.209 121.462 231.966C121.126 231.723 120.688 231.602 120.146 231.602C119.614 231.602 119.176 231.723 118.83 231.966C118.494 232.209 118.242 232.535 118.074 232.946C117.916 233.357 117.836 233.814 117.836 234.318C117.836 234.822 117.916 235.279 118.074 235.69C118.242 236.101 118.494 236.427 118.83 236.67C119.176 236.913 119.614 237.034 120.146 237.034ZM125.252 238V230.622H126.4L126.456 231.742C126.624 231.471 126.839 231.247 127.1 231.07C127.362 230.893 127.646 230.762 127.954 230.678C128.272 230.585 128.58 230.538 128.878 230.538C129.597 230.538 130.157 230.687 130.558 230.986C130.969 231.285 131.258 231.691 131.426 232.204C131.604 232.708 131.692 233.282 131.692 233.926V238H130.502V234.248C130.502 233.903 130.479 233.571 130.432 233.254C130.395 232.937 130.311 232.652 130.18 232.4C130.059 232.148 129.882 231.952 129.648 231.812C129.415 231.663 129.102 231.588 128.71 231.588C128.225 231.588 127.81 231.723 127.464 231.994C127.128 232.265 126.872 232.629 126.694 233.086C126.526 233.543 126.442 234.057 126.442 234.626V238H125.252ZM134.238 238V231.672H133.034V230.622H134.238V229.838C134.238 229.287 134.313 228.839 134.462 228.494C134.621 228.139 134.868 227.878 135.204 227.71C135.549 227.542 136.002 227.458 136.562 227.458H137.402V228.508H136.688C136.352 228.508 136.091 228.564 135.904 228.676C135.727 228.788 135.601 228.956 135.526 229.18C135.461 229.395 135.428 229.661 135.428 229.978V230.622H137.402V231.672H135.428V238H134.238ZM138.651 238V230.622H139.841V238H138.651ZM139.239 229.53C138.996 229.53 138.8 229.455 138.651 229.306C138.511 229.157 138.441 228.965 138.441 228.732C138.441 228.499 138.516 228.312 138.665 228.172C138.814 228.023 139.006 227.948 139.239 227.948C139.454 227.948 139.64 228.023 139.799 228.172C139.967 228.321 140.051 228.508 140.051 228.732C140.051 228.965 139.972 229.157 139.813 229.306C139.654 229.455 139.463 229.53 139.239 229.53ZM144.667 238.084C143.93 238.084 143.323 237.921 142.847 237.594C142.371 237.258 142.017 236.81 141.783 236.25C141.55 235.681 141.433 235.041 141.433 234.332C141.433 233.623 141.55 232.983 141.783 232.414C142.017 231.835 142.376 231.378 142.861 231.042C143.347 230.706 143.967 230.538 144.723 230.538C145.013 230.538 145.302 230.575 145.591 230.65C145.89 230.715 146.17 230.823 146.431 230.972C146.693 231.112 146.917 231.303 147.103 231.546V228.102H148.293V238H147.159L147.103 236.894C146.935 237.174 146.721 237.403 146.459 237.58C146.207 237.748 145.927 237.874 145.619 237.958C145.311 238.042 144.994 238.084 144.667 238.084ZM144.835 237.034C145.33 237.034 145.745 236.908 146.081 236.656C146.417 236.404 146.674 236.068 146.851 235.648C147.029 235.228 147.117 234.771 147.117 234.276C147.117 233.763 147.029 233.305 146.851 232.904C146.683 232.503 146.431 232.185 146.095 231.952C145.759 231.719 145.335 231.602 144.821 231.602C144.289 231.602 143.86 231.723 143.533 231.966C143.216 232.209 142.983 232.54 142.833 232.96C142.693 233.371 142.623 233.833 142.623 234.346C142.623 234.719 142.661 235.069 142.735 235.396C142.819 235.713 142.945 235.998 143.113 236.25C143.291 236.493 143.519 236.684 143.799 236.824C144.079 236.964 144.425 237.034 144.835 237.034ZM153.355 238.084C152.571 238.084 151.922 237.925 151.409 237.608C150.895 237.281 150.513 236.833 150.261 236.264C150.009 235.695 149.883 235.046 149.883 234.318C149.883 233.581 150.013 232.932 150.275 232.372C150.545 231.803 150.937 231.355 151.451 231.028C151.964 230.701 152.594 230.538 153.341 230.538C153.919 230.538 154.414 230.65 154.825 230.874C155.245 231.089 155.59 231.378 155.861 231.742C156.131 232.106 156.327 232.507 156.449 232.946C156.57 233.375 156.621 233.809 156.603 234.248C156.593 234.332 156.584 234.416 156.575 234.5C156.575 234.584 156.57 234.668 156.561 234.752H151.087C151.124 235.181 151.231 235.569 151.409 235.914C151.586 236.259 151.838 236.535 152.165 236.74C152.491 236.936 152.897 237.034 153.383 237.034C153.625 237.034 153.868 237.006 154.111 236.95C154.363 236.885 154.587 236.777 154.783 236.628C154.988 236.479 155.133 236.278 155.217 236.026H156.435C156.323 236.502 156.113 236.894 155.805 237.202C155.497 237.501 155.128 237.725 154.699 237.874C154.269 238.014 153.821 238.084 153.355 238.084ZM151.115 233.716H155.385C155.375 233.296 155.282 232.927 155.105 232.61C154.927 232.293 154.685 232.045 154.377 231.868C154.078 231.691 153.719 231.602 153.299 231.602C152.841 231.602 152.454 231.7 152.137 231.896C151.829 232.092 151.591 232.349 151.423 232.666C151.255 232.983 151.152 233.333 151.115 233.716ZM158.188 238V230.622H159.336L159.392 231.742C159.56 231.471 159.775 231.247 160.036 231.07C160.297 230.893 160.582 230.762 160.89 230.678C161.207 230.585 161.515 230.538 161.814 230.538C162.533 230.538 163.093 230.687 163.494 230.986C163.905 231.285 164.194 231.691 164.362 232.204C164.539 232.708 164.628 233.282 164.628 233.926V238H163.438V234.248C163.438 233.903 163.415 233.571 163.368 233.254C163.331 232.937 163.247 232.652 163.116 232.4C162.995 232.148 162.817 231.952 162.584 231.812C162.351 231.663 162.038 231.588 161.646 231.588C161.161 231.588 160.745 231.723 160.4 231.994C160.064 232.265 159.807 232.629 159.63 233.086C159.462 233.543 159.378 234.057 159.378 234.626V238H158.188ZM169.609 238.084C168.835 238.084 168.191 237.925 167.677 237.608C167.173 237.281 166.795 236.833 166.543 236.264C166.301 235.695 166.179 235.051 166.179 234.332C166.179 233.632 166.305 232.997 166.557 232.428C166.819 231.849 167.211 231.392 167.733 231.056C168.265 230.711 168.937 230.538 169.749 230.538C170.253 230.538 170.701 230.622 171.093 230.79C171.495 230.958 171.826 231.205 172.087 231.532C172.349 231.849 172.531 232.251 172.633 232.736H171.415C171.275 232.325 171.051 232.036 170.743 231.868C170.445 231.691 170.09 231.602 169.679 231.602C169.119 231.602 168.671 231.733 168.335 231.994C167.999 232.255 167.752 232.596 167.593 233.016C167.444 233.427 167.369 233.865 167.369 234.332C167.369 234.817 167.449 235.265 167.607 235.676C167.766 236.087 168.013 236.418 168.349 236.67C168.685 236.913 169.119 237.034 169.651 237.034C170.043 237.034 170.412 236.95 170.757 236.782C171.112 236.614 171.345 236.315 171.457 235.886H172.689C172.596 236.39 172.395 236.805 172.087 237.132C171.789 237.459 171.42 237.701 170.981 237.86C170.552 238.009 170.095 238.084 169.609 238.084ZM177.39 238.084C176.606 238.084 175.957 237.925 175.444 237.608C174.93 237.281 174.548 236.833 174.296 236.264C174.044 235.695 173.918 235.046 173.918 234.318C173.918 233.581 174.048 232.932 174.31 232.372C174.58 231.803 174.972 231.355 175.486 231.028C175.999 230.701 176.629 230.538 177.376 230.538C177.954 230.538 178.449 230.65 178.86 230.874C179.28 231.089 179.625 231.378 179.896 231.742C180.166 232.106 180.362 232.507 180.484 232.946C180.605 233.375 180.656 233.809 180.638 234.248C180.628 234.332 180.619 234.416 180.61 234.5C180.61 234.584 180.605 234.668 180.596 234.752H175.122C175.159 235.181 175.266 235.569 175.444 235.914C175.621 236.259 175.873 236.535 176.2 236.74C176.526 236.936 176.932 237.034 177.418 237.034C177.66 237.034 177.903 237.006 178.146 236.95C178.398 236.885 178.622 236.777 178.818 236.628C179.023 236.479 179.168 236.278 179.252 236.026H180.47C180.358 236.502 180.148 236.894 179.84 237.202C179.532 237.501 179.163 237.725 178.734 237.874C178.304 238.014 177.856 238.084 177.39 238.084ZM175.15 233.716H179.42C179.41 233.296 179.317 232.927 179.14 232.61C178.962 232.293 178.72 232.045 178.412 231.868C178.113 231.691 177.754 231.602 177.334 231.602C176.876 231.602 176.489 231.7 176.172 231.896C175.864 232.092 175.626 232.349 175.458 232.666C175.29 232.983 175.187 233.333 175.15 233.716ZM22.5151 251.416C22.2538 251.416 22.0018 251.36 21.7591 251.248C21.5258 251.136 21.3298 250.968 21.1711 250.744C21.0218 250.52 20.9471 250.24 20.9471 249.904C20.9471 249.419 21.0964 249.041 21.3951 248.77C21.7031 248.49 22.0811 248.35 22.5291 248.35C22.8091 248.35 23.0658 248.415 23.2991 248.546C23.5324 248.667 23.7144 248.845 23.8451 249.078C23.9851 249.302 24.0551 249.577 24.0551 249.904C24.0551 250.361 23.9011 250.73 23.5931 251.01C23.2944 251.281 22.9351 251.416 22.5151 251.416ZM34.218 255V245.102H40.868V246.208H35.436V249.918H40.182V251.038H35.436V255H34.218ZM45.1554 255.084C44.3714 255.084 43.7227 254.925 43.2094 254.608C42.6961 254.281 42.3134 253.833 42.0614 253.264C41.8094 252.695 41.6834 252.046 41.6834 251.318C41.6834 250.581 41.8141 249.932 42.0754 249.372C42.3461 248.803 42.7381 248.355 43.2514 248.028C43.7647 247.701 44.3947 247.538 45.1414 247.538C45.7201 247.538 46.2147 247.65 46.6254 247.874C47.0454 248.089 47.3907 248.378 47.6614 248.742C47.9321 249.106 48.1281 249.507 48.2494 249.946C48.3707 250.375 48.4221 250.809 48.4034 251.248C48.3941 251.332 48.3847 251.416 48.3754 251.5C48.3754 251.584 48.3707 251.668 48.3614 251.752H42.8874C42.9247 252.181 43.0321 252.569 43.2094 252.914C43.3867 253.259 43.6387 253.535 43.9654 253.74C44.2921 253.936 44.6981 254.034 45.1834 254.034C45.4261 254.034 45.6687 254.006 45.9114 253.95C46.1634 253.885 46.3874 253.777 46.5834 253.628C46.7887 253.479 46.9334 253.278 47.0174 253.026H48.2354C48.1234 253.502 47.9134 253.894 47.6054 254.202C47.2974 254.501 46.9287 254.725 46.4994 254.874C46.0701 255.014 45.6221 255.084 45.1554 255.084ZM42.9154 250.716H47.1854C47.1761 250.296 47.0827 249.927 46.9054 249.61C46.7281 249.293 46.4854 249.045 46.1774 248.868C45.8787 248.691 45.5194 248.602 45.0994 248.602C44.6421 248.602 44.2547 248.7 43.9374 248.896C43.6294 249.092 43.3914 249.349 43.2234 249.666C43.0554 249.983 42.9527 250.333 42.9154 250.716ZM52.3548 255.084C52.0188 255.084 51.6921 255.042 51.3748 254.958C51.0668 254.865 50.7868 254.729 50.5348 254.552C50.2921 254.365 50.0961 254.137 49.9468 253.866C49.8068 253.586 49.7368 253.264 49.7368 252.9C49.7368 252.48 49.8114 252.125 49.9608 251.836C50.1194 251.547 50.3294 251.318 50.5908 251.15C50.8521 250.982 51.1554 250.861 51.5008 250.786C51.8461 250.711 52.2054 250.674 52.5788 250.674H54.7488C54.7488 250.254 54.6881 249.89 54.5668 249.582C54.4548 249.274 54.2681 249.036 54.0068 248.868C53.7454 248.691 53.4001 248.602 52.9708 248.602C52.7094 248.602 52.4668 248.63 52.2428 248.686C52.0188 248.742 51.8274 248.831 51.6688 248.952C51.5101 249.073 51.3934 249.237 51.3188 249.442H50.0448C50.1101 249.106 50.2361 248.821 50.4228 248.588C50.6188 248.345 50.8521 248.149 51.1228 248C51.4028 247.841 51.7014 247.725 52.0188 247.65C52.3361 247.575 52.6534 247.538 52.9708 247.538C54.0348 247.538 54.7908 247.851 55.2388 248.476C55.6868 249.101 55.9108 249.946 55.9108 251.01V255H54.9168L54.8468 254.062C54.6414 254.342 54.3941 254.557 54.1048 254.706C53.8154 254.855 53.5168 254.953 53.2088 255C52.9101 255.056 52.6254 255.084 52.3548 255.084ZM52.4668 254.034C52.9334 254.034 53.3348 253.959 53.6708 253.81C54.0161 253.651 54.2821 253.423 54.4688 253.124C54.6554 252.825 54.7488 252.461 54.7488 252.032V251.668H53.4468C53.1388 251.668 52.8354 251.673 52.5368 251.682C52.2381 251.691 51.9674 251.729 51.7248 251.794C51.4821 251.859 51.2861 251.971 51.1368 252.13C50.9968 252.289 50.9268 252.517 50.9268 252.816C50.9268 253.096 50.9968 253.325 51.1368 253.502C51.2861 253.679 51.4774 253.815 51.7108 253.908C51.9534 253.992 52.2054 254.034 52.4668 254.034ZM57.7544 255V247.622H58.9024L58.9584 248.77C59.1451 248.481 59.3597 248.247 59.6024 248.07C59.8544 247.893 60.1297 247.762 60.4284 247.678C60.7364 247.585 61.0677 247.538 61.4224 247.538C61.4877 247.538 61.5484 247.538 61.6044 247.538C61.6697 247.538 61.7351 247.538 61.8004 247.538V248.658H61.3664C60.7877 248.658 60.3164 248.784 59.9524 249.036C59.5977 249.279 59.3411 249.61 59.1824 250.03C59.0237 250.441 58.9444 250.898 58.9444 251.402V255H57.7544ZM69.9705 255.084C69.1958 255.084 68.5472 254.925 68.0245 254.608C67.5018 254.281 67.1098 253.833 66.8485 253.264C66.5965 252.695 66.4705 252.046 66.4705 251.318C66.4705 250.581 66.6012 249.932 66.8625 249.372C67.1238 248.803 67.5158 248.355 68.0385 248.028C68.5612 247.701 69.2145 247.538 69.9985 247.538C70.7732 247.538 71.4172 247.701 71.9305 248.028C72.4532 248.355 72.8405 248.803 73.0925 249.372C73.3538 249.932 73.4845 250.581 73.4845 251.318C73.4845 252.046 73.3538 252.695 73.0925 253.264C72.8312 253.833 72.4392 254.281 71.9165 254.608C71.4032 254.925 70.7545 255.084 69.9705 255.084ZM69.9705 254.034C70.5118 254.034 70.9505 253.913 71.2865 253.67C71.6318 253.427 71.8838 253.101 72.0425 252.69C72.2105 252.279 72.2945 251.822 72.2945 251.318C72.2945 250.814 72.2105 250.357 72.0425 249.946C71.8838 249.535 71.6318 249.209 71.2865 248.966C70.9505 248.723 70.5118 248.602 69.9705 248.602C69.4385 248.602 68.9998 248.723 68.6545 248.966C68.3185 249.209 68.0665 249.535 67.8985 249.946C67.7398 250.357 67.6605 250.814 67.6605 251.318C67.6605 251.822 67.7398 252.279 67.8985 252.69C68.0665 253.101 68.3185 253.427 68.6545 253.67C68.9998 253.913 69.4385 254.034 69.9705 254.034ZM75.654 255V248.672H74.45V247.622H75.654V246.838C75.654 246.287 75.7286 245.839 75.878 245.494C76.0366 245.139 76.284 244.878 76.62 244.71C76.9653 244.542 77.418 244.458 77.978 244.458H78.818V245.508H78.104C77.768 245.508 77.5066 245.564 77.32 245.676C77.1426 245.788 77.0166 245.956 76.942 246.18C76.8766 246.395 76.844 246.661 76.844 246.978V247.622H78.818V248.672H76.844V255H75.654ZM86.5283 255.084C86.1923 255.084 85.8517 255.051 85.5063 254.986C85.1703 254.921 84.853 254.809 84.5543 254.65C84.265 254.491 84.0223 254.277 83.8263 254.006C83.6303 253.735 83.5043 253.399 83.4483 252.998H84.6523C84.7457 253.25 84.895 253.455 85.1003 253.614C85.315 253.763 85.553 253.871 85.8143 253.936C86.085 254.001 86.3417 254.034 86.5843 254.034C86.7337 254.034 86.9063 254.025 87.1023 254.006C87.2983 253.987 87.485 253.945 87.6623 253.88C87.849 253.805 87.9983 253.698 88.1103 253.558C88.2317 253.418 88.2923 253.222 88.2923 252.97C88.2923 252.783 88.2503 252.629 88.1663 252.508C88.0823 252.387 87.9657 252.289 87.8163 252.214C87.667 252.13 87.485 252.069 87.2703 252.032C86.8317 251.939 86.3603 251.85 85.8563 251.766C85.3617 251.682 84.923 251.523 84.5403 251.29C84.4097 251.206 84.2883 251.113 84.1763 251.01C84.0737 250.898 83.985 250.777 83.9103 250.646C83.8357 250.506 83.775 250.357 83.7283 250.198C83.691 250.03 83.6723 249.848 83.6723 249.652C83.6723 249.288 83.7423 248.975 83.8823 248.714C84.0317 248.443 84.237 248.224 84.4983 248.056C84.7597 247.879 85.0583 247.748 85.3943 247.664C85.7397 247.58 86.1083 247.538 86.5003 247.538C86.9857 247.538 87.4197 247.617 87.8023 247.776C88.1943 247.925 88.5163 248.149 88.7683 248.448C89.0203 248.737 89.1697 249.097 89.2163 249.526H88.1103C88.045 249.255 87.8677 249.036 87.5783 248.868C87.289 248.691 86.9203 248.602 86.4723 248.602C86.323 248.602 86.155 248.616 85.9683 248.644C85.7817 248.663 85.6043 248.709 85.4363 248.784C85.2683 248.849 85.1283 248.952 85.0163 249.092C84.9043 249.223 84.8483 249.4 84.8483 249.624C84.8483 249.829 84.8997 250.002 85.0023 250.142C85.1143 250.282 85.2683 250.394 85.4643 250.478C85.6603 250.562 85.8843 250.632 86.1363 250.688C86.463 250.753 86.8223 250.823 87.2143 250.898C87.6063 250.963 87.9143 251.033 88.1383 251.108C88.437 251.201 88.6843 251.332 88.8803 251.5C89.0857 251.668 89.235 251.869 89.3283 252.102C89.431 252.335 89.4823 252.606 89.4823 252.914C89.4823 253.353 89.3937 253.712 89.2163 253.992C89.0483 254.272 88.8197 254.491 88.5303 254.65C88.241 254.809 87.919 254.921 87.5643 254.986C87.219 255.051 86.8737 255.084 86.5283 255.084ZM94.2501 255.084C93.4754 255.084 92.8314 254.925 92.3181 254.608C91.8141 254.281 91.4361 253.833 91.1841 253.264C90.9414 252.695 90.8201 252.051 90.8201 251.332C90.8201 250.632 90.9461 249.997 91.1981 249.428C91.4594 248.849 91.8514 248.392 92.3741 248.056C92.9061 247.711 93.5781 247.538 94.3901 247.538C94.8941 247.538 95.3421 247.622 95.7341 247.79C96.1354 247.958 96.4668 248.205 96.7281 248.532C96.9894 248.849 97.1714 249.251 97.2741 249.736H96.0561C95.9161 249.325 95.6921 249.036 95.3841 248.868C95.0854 248.691 94.7308 248.602 94.3201 248.602C93.7601 248.602 93.3121 248.733 92.9761 248.994C92.6401 249.255 92.3928 249.596 92.2341 250.016C92.0848 250.427 92.0101 250.865 92.0101 251.332C92.0101 251.817 92.0894 252.265 92.2481 252.676C92.4068 253.087 92.6541 253.418 92.9901 253.67C93.3261 253.913 93.7601 254.034 94.2921 254.034C94.6841 254.034 95.0528 253.95 95.3981 253.782C95.7528 253.614 95.9861 253.315 96.0981 252.886H97.3301C97.2368 253.39 97.0361 253.805 96.7281 254.132C96.4294 254.459 96.0608 254.701 95.6221 254.86C95.1928 255.009 94.7354 255.084 94.2501 255.084ZM101.204 255.084C100.868 255.084 100.542 255.042 100.224 254.958C99.9164 254.865 99.6364 254.729 99.3844 254.552C99.1417 254.365 98.9457 254.137 98.7964 253.866C98.6564 253.586 98.5864 253.264 98.5864 252.9C98.5864 252.48 98.6611 252.125 98.8104 251.836C98.9691 251.547 99.1791 251.318 99.4404 251.15C99.7017 250.982 100.005 250.861 100.35 250.786C100.696 250.711 101.055 250.674 101.428 250.674H103.598C103.598 250.254 103.538 249.89 103.416 249.582C103.304 249.274 103.118 249.036 102.856 248.868C102.595 248.691 102.25 248.602 101.82 248.602C101.559 248.602 101.316 248.63 101.092 248.686C100.868 248.742 100.677 248.831 100.518 248.952C100.36 249.073 100.243 249.237 100.168 249.442H98.8944C98.9597 249.106 99.0857 248.821 99.2724 248.588C99.4684 248.345 99.7017 248.149 99.9724 248C100.252 247.841 100.551 247.725 100.868 247.65C101.186 247.575 101.503 247.538 101.82 247.538C102.884 247.538 103.64 247.851 104.088 248.476C104.536 249.101 104.76 249.946 104.76 251.01V255H103.766L103.696 254.062C103.491 254.342 103.244 254.557 102.954 254.706C102.665 254.855 102.366 254.953 102.058 255C101.76 255.056 101.475 255.084 101.204 255.084ZM101.316 254.034C101.783 254.034 102.184 253.959 102.52 253.81C102.866 253.651 103.132 253.423 103.318 253.124C103.505 252.825 103.598 252.461 103.598 252.032V251.668H102.296C101.988 251.668 101.685 251.673 101.386 251.682C101.088 251.691 100.817 251.729 100.574 251.794C100.332 251.859 100.136 251.971 99.9864 252.13C99.8464 252.289 99.7764 252.517 99.7764 252.816C99.7764 253.096 99.8464 253.325 99.9864 253.502C100.136 253.679 100.327 253.815 100.56 253.908C100.803 253.992 101.055 254.034 101.316 254.034ZM106.604 255V247.622H107.752L107.808 248.504C107.967 248.28 108.144 248.098 108.34 247.958C108.545 247.818 108.769 247.715 109.012 247.65C109.264 247.575 109.53 247.538 109.81 247.538C110.323 247.538 110.739 247.65 111.056 247.874C111.373 248.089 111.611 248.373 111.77 248.728C111.938 248.476 112.129 248.261 112.344 248.084C112.568 247.907 112.815 247.771 113.086 247.678C113.366 247.585 113.674 247.538 114.01 247.538C114.551 247.538 114.985 247.655 115.312 247.888C115.648 248.121 115.891 248.439 116.04 248.84C116.189 249.232 116.264 249.675 116.264 250.17V255H115.074V250.772C115.074 250.529 115.06 250.282 115.032 250.03C115.013 249.778 114.957 249.545 114.864 249.33C114.771 249.106 114.631 248.929 114.444 248.798C114.267 248.658 114.015 248.588 113.688 248.588C113.38 248.588 113.119 248.663 112.904 248.812C112.699 248.952 112.531 249.143 112.4 249.386C112.269 249.629 112.176 249.89 112.12 250.17C112.064 250.441 112.036 250.711 112.036 250.982V255H110.846V250.758C110.846 250.525 110.832 250.282 110.804 250.03C110.785 249.778 110.734 249.545 110.65 249.33C110.575 249.106 110.445 248.929 110.258 248.798C110.081 248.658 109.833 248.588 109.516 248.588C109.068 248.588 108.718 248.719 108.466 248.98C108.214 249.232 108.037 249.545 107.934 249.918C107.841 250.282 107.794 250.641 107.794 250.996V255H106.604ZM120.763 255.084C120.427 255.084 120.086 255.051 119.741 254.986C119.405 254.921 119.087 254.809 118.789 254.65C118.499 254.491 118.257 254.277 118.061 254.006C117.865 253.735 117.739 253.399 117.683 252.998H118.887C118.98 253.25 119.129 253.455 119.335 253.614C119.549 253.763 119.787 253.871 120.049 253.936C120.319 254.001 120.576 254.034 120.819 254.034C120.968 254.034 121.141 254.025 121.337 254.006C121.533 253.987 121.719 253.945 121.897 253.88C122.083 253.805 122.233 253.698 122.345 253.558C122.466 253.418 122.527 253.222 122.527 252.97C122.527 252.783 122.485 252.629 122.401 252.508C122.317 252.387 122.2 252.289 122.051 252.214C121.901 252.13 121.719 252.069 121.505 252.032C121.066 251.939 120.595 251.85 120.091 251.766C119.596 251.682 119.157 251.523 118.775 251.29C118.644 251.206 118.523 251.113 118.411 251.01C118.308 250.898 118.219 250.777 118.145 250.646C118.07 250.506 118.009 250.357 117.963 250.198C117.925 250.03 117.907 249.848 117.907 249.652C117.907 249.288 117.977 248.975 118.117 248.714C118.266 248.443 118.471 248.224 118.733 248.056C118.994 247.879 119.293 247.748 119.629 247.664C119.974 247.58 120.343 247.538 120.735 247.538C121.22 247.538 121.654 247.617 122.037 247.776C122.429 247.925 122.751 248.149 123.003 248.448C123.255 248.737 123.404 249.097 123.451 249.526H122.345C122.279 249.255 122.102 249.036 121.813 248.868C121.523 248.691 121.155 248.602 120.707 248.602C120.557 248.602 120.389 248.616 120.203 248.644C120.016 248.663 119.839 248.709 119.671 248.784C119.503 248.849 119.363 248.952 119.251 249.092C119.139 249.223 119.083 249.4 119.083 249.624C119.083 249.829 119.134 250.002 119.237 250.142C119.349 250.282 119.503 250.394 119.699 250.478C119.895 250.562 120.119 250.632 120.371 250.688C120.697 250.753 121.057 250.823 121.449 250.898C121.841 250.963 122.149 251.033 122.373 251.108C122.671 251.201 122.919 251.332 123.115 251.5C123.32 251.668 123.469 251.869 123.563 252.102C123.665 252.335 123.717 252.606 123.717 252.914C123.717 253.353 123.628 253.712 123.451 253.992C123.283 254.272 123.054 254.491 122.765 254.65C122.475 254.809 122.153 254.921 121.799 254.986C121.453 255.051 121.108 255.084 120.763 255.084ZM22.5151 268.416C22.2538 268.416 22.0018 268.36 21.7591 268.248C21.5258 268.136 21.3298 267.968 21.1711 267.744C21.0218 267.52 20.9471 267.24 20.9471 266.904C20.9471 266.419 21.0964 266.041 21.3951 265.77C21.7031 265.49 22.0811 265.35 22.5291 265.35C22.8091 265.35 23.0658 265.415 23.2991 265.546C23.5324 265.667 23.7144 265.845 23.8451 266.078C23.9851 266.302 24.0551 266.577 24.0551 266.904C24.0551 267.361 23.9011 267.73 23.5931 268.01C23.2944 268.281 22.9351 268.416 22.5151 268.416ZM34.218 272V262.102H35.772L40.938 270.348V262.102H42.156V272H40.63L35.436 263.782V272H34.218ZM47.507 272.084C46.723 272.084 46.0743 271.925 45.561 271.608C45.0476 271.281 44.665 270.833 44.413 270.264C44.161 269.695 44.035 269.046 44.035 268.318C44.035 267.581 44.1656 266.932 44.427 266.372C44.6976 265.803 45.0896 265.355 45.603 265.028C46.1163 264.701 46.7463 264.538 47.493 264.538C48.0716 264.538 48.5663 264.65 48.977 264.874C49.397 265.089 49.7423 265.378 50.013 265.742C50.2836 266.106 50.4796 266.507 50.601 266.946C50.7223 267.375 50.7736 267.809 50.755 268.248C50.7456 268.332 50.7363 268.416 50.727 268.5C50.727 268.584 50.7223 268.668 50.713 268.752H45.239C45.2763 269.181 45.3836 269.569 45.561 269.914C45.7383 270.259 45.9903 270.535 46.317 270.74C46.6436 270.936 47.0496 271.034 47.535 271.034C47.7776 271.034 48.0203 271.006 48.263 270.95C48.515 270.885 48.739 270.777 48.935 270.628C49.1403 270.479 49.285 270.278 49.369 270.026H50.587C50.475 270.502 50.265 270.894 49.957 271.202C49.649 271.501 49.2803 271.725 48.851 271.874C48.4216 272.014 47.9736 272.084 47.507 272.084ZM45.267 267.716H49.537C49.5276 267.296 49.4343 266.927 49.257 266.61C49.0796 266.293 48.837 266.045 48.529 265.868C48.2303 265.691 47.871 265.602 47.451 265.602C46.9936 265.602 46.6063 265.7 46.289 265.896C45.981 266.092 45.743 266.349 45.575 266.666C45.407 266.983 45.3043 267.333 45.267 267.716ZM55.5323 272.084C54.7483 272.084 54.0997 271.925 53.5863 271.608C53.073 271.281 52.6903 270.833 52.4383 270.264C52.1863 269.695 52.0603 269.046 52.0603 268.318C52.0603 267.581 52.191 266.932 52.4523 266.372C52.723 265.803 53.115 265.355 53.6283 265.028C54.1417 264.701 54.7717 264.538 55.5183 264.538C56.097 264.538 56.5917 264.65 57.0023 264.874C57.4223 265.089 57.7677 265.378 58.0383 265.742C58.309 266.106 58.505 266.507 58.6263 266.946C58.7477 267.375 58.799 267.809 58.7803 268.248C58.771 268.332 58.7617 268.416 58.7523 268.5C58.7523 268.584 58.7477 268.668 58.7383 268.752H53.2643C53.3017 269.181 53.409 269.569 53.5863 269.914C53.7637 270.259 54.0157 270.535 54.3423 270.74C54.669 270.936 55.075 271.034 55.5603 271.034C55.803 271.034 56.0457 271.006 56.2883 270.95C56.5403 270.885 56.7643 270.777 56.9603 270.628C57.1657 270.479 57.3103 270.278 57.3943 270.026H58.6123C58.5003 270.502 58.2903 270.894 57.9823 271.202C57.6743 271.501 57.3057 271.725 56.8763 271.874C56.447 272.014 55.999 272.084 55.5323 272.084ZM53.2923 267.716H57.5623C57.553 267.296 57.4597 266.927 57.2823 266.61C57.105 266.293 56.8623 266.045 56.5543 265.868C56.2557 265.691 55.8963 265.602 55.4763 265.602C55.019 265.602 54.6317 265.7 54.3143 265.896C54.0063 266.092 53.7683 266.349 53.6003 266.666C53.4323 266.983 53.3297 267.333 53.2923 267.716ZM63.3197 272.084C62.5824 272.084 61.9757 271.921 61.4997 271.594C61.0237 271.258 60.6691 270.81 60.4357 270.25C60.2024 269.681 60.0857 269.041 60.0857 268.332C60.0857 267.623 60.2024 266.983 60.4357 266.414C60.6691 265.835 61.0284 265.378 61.5137 265.042C61.9991 264.706 62.6197 264.538 63.3757 264.538C63.6651 264.538 63.9544 264.575 64.2437 264.65C64.5424 264.715 64.8224 264.823 65.0837 264.972C65.3451 265.112 65.5691 265.303 65.7557 265.546V262.102H66.9457V272H65.8117L65.7557 270.894C65.5877 271.174 65.3731 271.403 65.1117 271.58C64.8597 271.748 64.5797 271.874 64.2717 271.958C63.9637 272.042 63.6464 272.084 63.3197 272.084ZM63.4877 271.034C63.9824 271.034 64.3977 270.908 64.7337 270.656C65.0697 270.404 65.3264 270.068 65.5037 269.648C65.6811 269.228 65.7697 268.771 65.7697 268.276C65.7697 267.763 65.6811 267.305 65.5037 266.904C65.3357 266.503 65.0837 266.185 64.7477 265.952C64.4117 265.719 63.9871 265.602 63.4737 265.602C62.9417 265.602 62.5124 265.723 62.1857 265.966C61.8684 266.209 61.6351 266.54 61.4857 266.96C61.3457 267.371 61.2757 267.833 61.2757 268.346C61.2757 268.719 61.3131 269.069 61.3877 269.396C61.4717 269.713 61.5977 269.998 61.7657 270.25C61.9431 270.493 62.1717 270.684 62.4517 270.824C62.7317 270.964 63.0771 271.034 63.4877 271.034ZM71.503 272.084C71.167 272.084 70.8263 272.051 70.481 271.986C70.145 271.921 69.8276 271.809 69.529 271.65C69.2396 271.491 68.997 271.277 68.801 271.006C68.605 270.735 68.479 270.399 68.423 269.998H69.627C69.7203 270.25 69.8696 270.455 70.075 270.614C70.2896 270.763 70.5276 270.871 70.789 270.936C71.0596 271.001 71.3163 271.034 71.559 271.034C71.7083 271.034 71.881 271.025 72.077 271.006C72.273 270.987 72.4596 270.945 72.637 270.88C72.8236 270.805 72.973 270.698 73.085 270.558C73.2063 270.418 73.267 270.222 73.267 269.97C73.267 269.783 73.225 269.629 73.141 269.508C73.057 269.387 72.9403 269.289 72.791 269.214C72.6416 269.13 72.4596 269.069 72.245 269.032C71.8063 268.939 71.335 268.85 70.831 268.766C70.3363 268.682 69.8976 268.523 69.515 268.29C69.3843 268.206 69.263 268.113 69.151 268.01C69.0483 267.898 68.9596 267.777 68.885 267.646C68.8103 267.506 68.7496 267.357 68.703 267.198C68.6656 267.03 68.647 266.848 68.647 266.652C68.647 266.288 68.717 265.975 68.857 265.714C69.0063 265.443 69.2116 265.224 69.473 265.056C69.7343 264.879 70.033 264.748 70.369 264.664C70.7143 264.58 71.083 264.538 71.475 264.538C71.9603 264.538 72.3943 264.617 72.777 264.776C73.169 264.925 73.491 265.149 73.743 265.448C73.995 265.737 74.1443 266.097 74.191 266.526H73.085C73.0196 266.255 72.8423 266.036 72.553 265.868C72.2636 265.691 71.895 265.602 71.447 265.602C71.2976 265.602 71.1296 265.616 70.943 265.644C70.7563 265.663 70.579 265.709 70.411 265.784C70.243 265.849 70.103 265.952 69.991 266.092C69.879 266.223 69.823 266.4 69.823 266.624C69.823 266.829 69.8743 267.002 69.977 267.142C70.089 267.282 70.243 267.394 70.439 267.478C70.635 267.562 70.859 267.632 71.111 267.688C71.4376 267.753 71.797 267.823 72.189 267.898C72.581 267.963 72.889 268.033 73.113 268.108C73.4116 268.201 73.659 268.332 73.855 268.5C74.0603 268.668 74.2096 268.869 74.303 269.102C74.4056 269.335 74.457 269.606 74.457 269.914C74.457 270.353 74.3683 270.712 74.191 270.992C74.023 271.272 73.7943 271.491 73.505 271.65C73.2156 271.809 72.8936 271.921 72.539 271.986C72.1936 272.051 71.8483 272.084 71.503 272.084ZM79.7114 272V264.622H80.8594L80.9154 265.77C81.1021 265.481 81.3168 265.247 81.5594 265.07C81.8114 264.893 82.0868 264.762 82.3854 264.678C82.6934 264.585 83.0248 264.538 83.3794 264.538C83.4448 264.538 83.5054 264.538 83.5614 264.538C83.6268 264.538 83.6921 264.538 83.7574 264.538V265.658H83.3234C82.7448 265.658 82.2734 265.784 81.9094 266.036C81.5548 266.279 81.2981 266.61 81.1394 267.03C80.9808 267.441 80.9014 267.898 80.9014 268.402V272H79.7114ZM87.9894 272.084C87.2054 272.084 86.5567 271.925 86.0434 271.608C85.53 271.281 85.1474 270.833 84.8954 270.264C84.6434 269.695 84.5174 269.046 84.5174 268.318C84.5174 267.581 84.648 266.932 84.9094 266.372C85.18 265.803 85.572 265.355 86.0854 265.028C86.5987 264.701 87.2287 264.538 87.9754 264.538C88.554 264.538 89.0487 264.65 89.4594 264.874C89.8794 265.089 90.2247 265.378 90.4954 265.742C90.766 266.106 90.962 266.507 91.0834 266.946C91.2047 267.375 91.256 267.809 91.2374 268.248C91.228 268.332 91.2187 268.416 91.2094 268.5C91.2094 268.584 91.2047 268.668 91.1954 268.752H85.7214C85.7587 269.181 85.866 269.569 86.0434 269.914C86.2207 270.259 86.4727 270.535 86.7994 270.74C87.126 270.936 87.532 271.034 88.0174 271.034C88.26 271.034 88.5027 271.006 88.7454 270.95C88.9974 270.885 89.2214 270.777 89.4174 270.628C89.6227 270.479 89.7674 270.278 89.8514 270.026H91.0694C90.9574 270.502 90.7474 270.894 90.4394 271.202C90.1314 271.501 89.7627 271.725 89.3334 271.874C88.904 272.014 88.456 272.084 87.9894 272.084ZM85.7494 267.716H90.0194C90.01 267.296 89.9167 266.927 89.7394 266.61C89.562 266.293 89.3194 266.045 89.0114 265.868C88.7127 265.691 88.3534 265.602 87.9334 265.602C87.476 265.602 87.0887 265.7 86.7714 265.896C86.4634 266.092 86.2254 266.349 86.0574 266.666C85.8894 266.983 85.7867 267.333 85.7494 267.716ZM95.1888 272.084C94.8528 272.084 94.5261 272.042 94.2088 271.958C93.9008 271.865 93.6208 271.729 93.3688 271.552C93.1261 271.365 92.9301 271.137 92.7808 270.866C92.6408 270.586 92.5708 270.264 92.5708 269.9C92.5708 269.48 92.6454 269.125 92.7948 268.836C92.9534 268.547 93.1634 268.318 93.4248 268.15C93.6861 267.982 93.9894 267.861 94.3348 267.786C94.6801 267.711 95.0394 267.674 95.4128 267.674H97.5828C97.5828 267.254 97.5221 266.89 97.4008 266.582C97.2888 266.274 97.1021 266.036 96.8408 265.868C96.5794 265.691 96.2341 265.602 95.8048 265.602C95.5434 265.602 95.3008 265.63 95.0768 265.686C94.8528 265.742 94.6614 265.831 94.5028 265.952C94.3441 266.073 94.2274 266.237 94.1528 266.442H92.8788C92.9441 266.106 93.0701 265.821 93.2568 265.588C93.4528 265.345 93.6861 265.149 93.9568 265C94.2368 264.841 94.5354 264.725 94.8528 264.65C95.1701 264.575 95.4874 264.538 95.8048 264.538C96.8688 264.538 97.6248 264.851 98.0728 265.476C98.5208 266.101 98.7448 266.946 98.7448 268.01V272H97.7508L97.6808 271.062C97.4754 271.342 97.2281 271.557 96.9388 271.706C96.6494 271.855 96.3508 271.953 96.0428 272C95.7441 272.056 95.4594 272.084 95.1888 272.084ZM95.3008 271.034C95.7674 271.034 96.1688 270.959 96.5048 270.81C96.8501 270.651 97.1161 270.423 97.3028 270.124C97.4894 269.825 97.5828 269.461 97.5828 269.032V268.668H96.2808C95.9728 268.668 95.6694 268.673 95.3708 268.682C95.0721 268.691 94.8014 268.729 94.5588 268.794C94.3161 268.859 94.1201 268.971 93.9708 269.13C93.8308 269.289 93.7608 269.517 93.7608 269.816C93.7608 270.096 93.8308 270.325 93.9708 270.502C94.1201 270.679 94.3114 270.815 94.5448 270.908C94.7874 270.992 95.0394 271.034 95.3008 271.034ZM103.276 272.084C102.94 272.084 102.6 272.051 102.254 271.986C101.918 271.921 101.601 271.809 101.302 271.65C101.013 271.491 100.77 271.277 100.574 271.006C100.378 270.735 100.252 270.399 100.196 269.998H101.4C101.494 270.25 101.643 270.455 101.848 270.614C102.063 270.763 102.301 270.871 102.562 270.936C102.833 271.001 103.09 271.034 103.332 271.034C103.482 271.034 103.654 271.025 103.85 271.006C104.046 270.987 104.233 270.945 104.41 270.88C104.597 270.805 104.746 270.698 104.858 270.558C104.98 270.418 105.04 270.222 105.04 269.97C105.04 269.783 104.998 269.629 104.914 269.508C104.83 269.387 104.714 269.289 104.564 269.214C104.415 269.13 104.233 269.069 104.018 269.032C103.58 268.939 103.108 268.85 102.604 268.766C102.11 268.682 101.671 268.523 101.288 268.29C101.158 268.206 101.036 268.113 100.924 268.01C100.822 267.898 100.733 267.777 100.658 267.646C100.584 267.506 100.523 267.357 100.476 267.198C100.439 267.03 100.42 266.848 100.42 266.652C100.42 266.288 100.49 265.975 100.63 265.714C100.78 265.443 100.985 265.224 101.246 265.056C101.508 264.879 101.806 264.748 102.142 264.664C102.488 264.58 102.856 264.538 103.248 264.538C103.734 264.538 104.168 264.617 104.55 264.776C104.942 264.925 105.264 265.149 105.516 265.448C105.768 265.737 105.918 266.097 105.964 266.526H104.858C104.793 266.255 104.616 266.036 104.326 265.868C104.037 265.691 103.668 265.602 103.22 265.602C103.071 265.602 102.903 265.616 102.716 265.644C102.53 265.663 102.352 265.709 102.184 265.784C102.016 265.849 101.876 265.952 101.764 266.092C101.652 266.223 101.596 266.4 101.596 266.624C101.596 266.829 101.648 267.002 101.75 267.142C101.862 267.282 102.016 267.394 102.212 267.478C102.408 267.562 102.632 267.632 102.884 267.688C103.211 267.753 103.57 267.823 103.962 267.898C104.354 267.963 104.662 268.033 104.886 268.108C105.185 268.201 105.432 268.332 105.628 268.5C105.834 268.668 105.983 268.869 106.076 269.102C106.179 269.335 106.23 269.606 106.23 269.914C106.23 270.353 106.142 270.712 105.964 270.992C105.796 271.272 105.568 271.491 105.278 271.65C104.989 271.809 104.667 271.921 104.312 271.986C103.967 272.051 103.622 272.084 103.276 272.084ZM110.399 272.084C110.063 272.084 109.723 272.051 109.377 271.986C109.041 271.921 108.724 271.809 108.425 271.65C108.136 271.491 107.893 271.277 107.697 271.006C107.501 270.735 107.375 270.399 107.319 269.998H108.523C108.617 270.25 108.766 270.455 108.971 270.614C109.186 270.763 109.424 270.871 109.685 270.936C109.956 271.001 110.213 271.034 110.455 271.034C110.605 271.034 110.777 271.025 110.973 271.006C111.169 270.987 111.356 270.945 111.533 270.88C111.72 270.805 111.869 270.698 111.981 270.558C112.103 270.418 112.163 270.222 112.163 269.97C112.163 269.783 112.121 269.629 112.037 269.508C111.953 269.387 111.837 269.289 111.687 269.214C111.538 269.13 111.356 269.069 111.141 269.032C110.703 268.939 110.231 268.85 109.727 268.766C109.233 268.682 108.794 268.523 108.411 268.29C108.281 268.206 108.159 268.113 108.047 268.01C107.945 267.898 107.856 267.777 107.781 267.646C107.707 267.506 107.646 267.357 107.599 267.198C107.562 267.03 107.543 266.848 107.543 266.652C107.543 266.288 107.613 265.975 107.753 265.714C107.903 265.443 108.108 265.224 108.369 265.056C108.631 264.879 108.929 264.748 109.265 264.664C109.611 264.58 109.979 264.538 110.371 264.538C110.857 264.538 111.291 264.617 111.673 264.776C112.065 264.925 112.387 265.149 112.639 265.448C112.891 265.737 113.041 266.097 113.087 266.526H111.981C111.916 266.255 111.739 266.036 111.449 265.868C111.16 265.691 110.791 265.602 110.343 265.602C110.194 265.602 110.026 265.616 109.839 265.644C109.653 265.663 109.475 265.709 109.307 265.784C109.139 265.849 108.999 265.952 108.887 266.092C108.775 266.223 108.719 266.4 108.719 266.624C108.719 266.829 108.771 267.002 108.873 267.142C108.985 267.282 109.139 267.394 109.335 267.478C109.531 267.562 109.755 267.632 110.007 267.688C110.334 267.753 110.693 267.823 111.085 267.898C111.477 267.963 111.785 268.033 112.009 268.108C112.308 268.201 112.555 268.332 112.751 268.5C112.957 268.668 113.106 268.869 113.199 269.102C113.302 269.335 113.353 269.606 113.353 269.914C113.353 270.353 113.265 270.712 113.087 270.992C112.919 271.272 112.691 271.491 112.401 271.65C112.112 271.809 111.79 271.921 111.435 271.986C111.09 272.051 110.745 272.084 110.399 272.084ZM117.914 272.084C116.897 272.084 116.122 271.813 115.59 271.272C115.068 270.731 114.806 269.9 114.806 268.78V264.622H115.996V268.724C115.996 269.209 116.066 269.625 116.206 269.97C116.346 270.315 116.556 270.581 116.836 270.768C117.126 270.945 117.485 271.034 117.914 271.034C118.362 271.034 118.731 270.945 119.02 270.768C119.31 270.581 119.52 270.315 119.65 269.97C119.79 269.625 119.86 269.209 119.86 268.724V264.622H121.05V268.78C121.05 269.9 120.78 270.731 120.238 271.272C119.706 271.813 118.932 272.084 117.914 272.084ZM122.901 272V264.622H124.049L124.105 265.77C124.292 265.481 124.506 265.247 124.749 265.07C125.001 264.893 125.276 264.762 125.575 264.678C125.883 264.585 126.214 264.538 126.569 264.538C126.634 264.538 126.695 264.538 126.751 264.538C126.816 264.538 126.882 264.538 126.947 264.538V265.658H126.513C125.934 265.658 125.463 265.784 125.099 266.036C124.744 266.279 124.488 266.61 124.329 267.03C124.17 267.441 124.091 267.898 124.091 268.402V272H122.901ZM130.49 272.084C130.154 272.084 129.827 272.042 129.51 271.958C129.202 271.865 128.922 271.729 128.67 271.552C128.427 271.365 128.231 271.137 128.082 270.866C127.942 270.586 127.872 270.264 127.872 269.9C127.872 269.48 127.946 269.125 128.096 268.836C128.254 268.547 128.464 268.318 128.726 268.15C128.987 267.982 129.29 267.861 129.636 267.786C129.981 267.711 130.34 267.674 130.714 267.674H132.884C132.884 267.254 132.823 266.89 132.702 266.582C132.59 266.274 132.403 266.036 132.142 265.868C131.88 265.691 131.535 265.602 131.106 265.602C130.844 265.602 130.602 265.63 130.378 265.686C130.154 265.742 129.962 265.831 129.804 265.952C129.645 266.073 129.528 266.237 129.454 266.442H128.18C128.245 266.106 128.371 265.821 128.558 265.588C128.754 265.345 128.987 265.149 129.258 265C129.538 264.841 129.836 264.725 130.154 264.65C130.471 264.575 130.788 264.538 131.106 264.538C132.17 264.538 132.926 264.851 133.374 265.476C133.822 266.101 134.046 266.946 134.046 268.01V272H133.052L132.982 271.062C132.776 271.342 132.529 271.557 132.24 271.706C131.95 271.855 131.652 271.953 131.344 272C131.045 272.056 130.76 272.084 130.49 272.084ZM130.602 271.034C131.068 271.034 131.47 270.959 131.806 270.81C132.151 270.651 132.417 270.423 132.604 270.124C132.79 269.825 132.884 269.461 132.884 269.032V268.668H131.582C131.274 268.668 130.97 268.673 130.672 268.682C130.373 268.691 130.102 268.729 129.86 268.794C129.617 268.859 129.421 268.971 129.272 269.13C129.132 269.289 129.062 269.517 129.062 269.816C129.062 270.096 129.132 270.325 129.272 270.502C129.421 270.679 129.612 270.815 129.846 270.908C130.088 270.992 130.34 271.034 130.602 271.034ZM135.889 272V264.622H137.037L137.093 265.742C137.261 265.471 137.476 265.247 137.737 265.07C137.999 264.893 138.283 264.762 138.591 264.678C138.909 264.585 139.217 264.538 139.515 264.538C140.234 264.538 140.794 264.687 141.195 264.986C141.606 265.285 141.895 265.691 142.063 266.204C142.241 266.708 142.329 267.282 142.329 267.926V272H141.139V268.248C141.139 267.903 141.116 267.571 141.069 267.254C141.032 266.937 140.948 266.652 140.817 266.4C140.696 266.148 140.519 265.952 140.285 265.812C140.052 265.663 139.739 265.588 139.347 265.588C138.862 265.588 138.447 265.723 138.101 265.994C137.765 266.265 137.509 266.629 137.331 267.086C137.163 267.543 137.079 268.057 137.079 268.626V272H135.889ZM147.311 272.084C146.536 272.084 145.892 271.925 145.379 271.608C144.875 271.281 144.497 270.833 144.245 270.264C144.002 269.695 143.881 269.051 143.881 268.332C143.881 267.632 144.007 266.997 144.259 266.428C144.52 265.849 144.912 265.392 145.435 265.056C145.967 264.711 146.639 264.538 147.451 264.538C147.955 264.538 148.403 264.622 148.795 264.79C149.196 264.958 149.527 265.205 149.789 265.532C150.05 265.849 150.232 266.251 150.335 266.736H149.117C148.977 266.325 148.753 266.036 148.445 265.868C148.146 265.691 147.791 265.602 147.381 265.602C146.821 265.602 146.373 265.733 146.037 265.994C145.701 266.255 145.453 266.596 145.295 267.016C145.145 267.427 145.071 267.865 145.071 268.332C145.071 268.817 145.15 269.265 145.309 269.676C145.467 270.087 145.715 270.418 146.051 270.67C146.387 270.913 146.821 271.034 147.353 271.034C147.745 271.034 148.113 270.95 148.459 270.782C148.813 270.614 149.047 270.315 149.159 269.886H150.391C150.297 270.39 150.097 270.805 149.789 271.132C149.49 271.459 149.121 271.701 148.683 271.86C148.253 272.009 147.796 272.084 147.311 272.084ZM155.091 272.084C154.307 272.084 153.658 271.925 153.145 271.608C152.632 271.281 152.249 270.833 151.997 270.264C151.745 269.695 151.619 269.046 151.619 268.318C151.619 267.581 151.75 266.932 152.011 266.372C152.282 265.803 152.674 265.355 153.187 265.028C153.7 264.701 154.33 264.538 155.077 264.538C155.656 264.538 156.15 264.65 156.561 264.874C156.981 265.089 157.326 265.378 157.597 265.742C157.868 266.106 158.064 266.507 158.185 266.946C158.306 267.375 158.358 267.809 158.339 268.248C158.33 268.332 158.32 268.416 158.311 268.5C158.311 268.584 158.306 268.668 158.297 268.752H152.823C152.86 269.181 152.968 269.569 153.145 269.914C153.322 270.259 153.574 270.535 153.901 270.74C154.228 270.936 154.634 271.034 155.119 271.034C155.362 271.034 155.604 271.006 155.847 270.95C156.099 270.885 156.323 270.777 156.519 270.628C156.724 270.479 156.869 270.278 156.953 270.026H158.171C158.059 270.502 157.849 270.894 157.541 271.202C157.233 271.501 156.864 271.725 156.435 271.874C156.006 272.014 155.558 272.084 155.091 272.084ZM152.851 267.716H157.121C157.112 267.296 157.018 266.927 156.841 266.61C156.664 266.293 156.421 266.045 156.113 265.868C155.814 265.691 155.455 265.602 155.035 265.602C154.578 265.602 154.19 265.7 153.873 265.896C153.565 266.092 153.327 266.349 153.159 266.666C152.991 266.983 152.888 267.333 152.851 267.716ZM166.722 272.112C166.32 272.112 165.938 272.056 165.574 271.944C165.21 271.832 164.888 271.669 164.608 271.454C164.328 271.23 164.104 270.95 163.936 270.614C163.777 270.278 163.698 269.886 163.698 269.438C163.698 269.018 163.777 268.64 163.936 268.304C164.104 267.968 164.342 267.665 164.65 267.394C164.958 267.123 165.326 266.881 165.756 266.666C165.392 266.321 165.116 265.961 164.93 265.588C164.752 265.215 164.664 264.827 164.664 264.426C164.664 263.997 164.757 263.6 164.944 263.236C165.13 262.863 165.415 262.564 165.798 262.34C166.18 262.107 166.67 261.99 167.268 261.99C167.716 261.99 168.112 262.074 168.458 262.242C168.803 262.41 169.074 262.657 169.27 262.984C169.466 263.311 169.564 263.707 169.564 264.174C169.564 264.566 169.466 264.93 169.27 265.266C169.083 265.602 168.831 265.905 168.514 266.176C168.196 266.447 167.842 266.685 167.45 266.89L169.55 269.382C169.708 269.167 169.839 268.906 169.942 268.598C170.044 268.29 170.119 267.968 170.166 267.632H171.342C171.295 268.164 171.178 268.645 170.992 269.074C170.805 269.494 170.586 269.881 170.334 270.236L171.902 272H170.306L169.522 271.132C169.13 271.487 168.696 271.739 168.22 271.888C167.753 272.037 167.254 272.112 166.722 272.112ZM166.918 271.006C167.235 271.006 167.557 270.955 167.884 270.852C168.22 270.749 168.532 270.553 168.822 270.264L166.386 267.464C166.124 267.595 165.886 267.753 165.672 267.94C165.457 268.127 165.284 268.341 165.154 268.584C165.032 268.827 164.972 269.102 164.972 269.41C164.972 269.765 165.065 270.063 165.252 270.306C165.448 270.539 165.695 270.717 165.994 270.838C166.292 270.95 166.6 271.006 166.918 271.006ZM166.764 266.162C166.988 266.031 167.226 265.873 167.478 265.686C167.739 265.499 167.958 265.289 168.136 265.056C168.322 264.813 168.416 264.561 168.416 264.3C168.416 264.057 168.364 263.847 168.262 263.67C168.159 263.483 168.014 263.343 167.828 263.25C167.641 263.147 167.422 263.096 167.17 263.096C166.75 263.096 166.423 263.208 166.19 263.432C165.966 263.656 165.854 263.964 165.854 264.356C165.854 264.608 165.9 264.846 165.994 265.07C166.096 265.285 166.218 265.485 166.358 265.672C166.507 265.849 166.642 266.013 166.764 266.162ZM180.096 272.084C179.321 272.084 178.677 271.925 178.164 271.608C177.66 271.281 177.282 270.833 177.03 270.264C176.787 269.695 176.666 269.051 176.666 268.332C176.666 267.632 176.792 266.997 177.044 266.428C177.305 265.849 177.697 265.392 178.22 265.056C178.752 264.711 179.424 264.538 180.236 264.538C180.74 264.538 181.188 264.622 181.58 264.79C181.981 264.958 182.312 265.205 182.574 265.532C182.835 265.849 183.017 266.251 183.12 266.736H181.902C181.762 266.325 181.538 266.036 181.23 265.868C180.931 265.691 180.576 265.602 180.166 265.602C179.606 265.602 179.158 265.733 178.822 265.994C178.486 266.255 178.238 266.596 178.08 267.016C177.93 267.427 177.856 267.865 177.856 268.332C177.856 268.817 177.935 269.265 178.094 269.676C178.252 270.087 178.5 270.418 178.836 270.67C179.172 270.913 179.606 271.034 180.138 271.034C180.53 271.034 180.898 270.95 181.244 270.782C181.598 270.614 181.832 270.315 181.944 269.886H183.176C183.082 270.39 182.882 270.805 182.574 271.132C182.275 271.459 181.906 271.701 181.468 271.86C181.038 272.009 180.581 272.084 180.096 272.084ZM184.684 272V262.102H185.874V272H184.684ZM190.113 272.084C189.777 272.084 189.45 272.042 189.133 271.958C188.825 271.865 188.545 271.729 188.293 271.552C188.05 271.365 187.854 271.137 187.705 270.866C187.565 270.586 187.495 270.264 187.495 269.9C187.495 269.48 187.569 269.125 187.719 268.836C187.877 268.547 188.087 268.318 188.349 268.15C188.61 267.982 188.913 267.861 189.259 267.786C189.604 267.711 189.963 267.674 190.337 267.674H192.507C192.507 267.254 192.446 266.89 192.325 266.582C192.213 266.274 192.026 266.036 191.765 265.868C191.503 265.691 191.158 265.602 190.729 265.602C190.467 265.602 190.225 265.63 190.001 265.686C189.777 265.742 189.585 265.831 189.427 265.952C189.268 266.073 189.151 266.237 189.077 266.442H187.803C187.868 266.106 187.994 265.821 188.181 265.588C188.377 265.345 188.61 265.149 188.881 265C189.161 264.841 189.459 264.725 189.777 264.65C190.094 264.575 190.411 264.538 190.729 264.538C191.793 264.538 192.549 264.851 192.997 265.476C193.445 266.101 193.669 266.946 193.669 268.01V272H192.675L192.605 271.062C192.399 271.342 192.152 271.557 191.863 271.706C191.573 271.855 191.275 271.953 190.967 272C190.668 272.056 190.383 272.084 190.113 272.084ZM190.225 271.034C190.691 271.034 191.093 270.959 191.429 270.81C191.774 270.651 192.04 270.423 192.227 270.124C192.413 269.825 192.507 269.461 192.507 269.032V268.668H191.205C190.897 268.668 190.593 268.673 190.295 268.682C189.996 268.691 189.725 268.729 189.483 268.794C189.24 268.859 189.044 268.971 188.895 269.13C188.755 269.289 188.685 269.517 188.685 269.816C188.685 270.096 188.755 270.325 188.895 270.502C189.044 270.679 189.235 270.815 189.469 270.908C189.711 270.992 189.963 271.034 190.225 271.034ZM195.512 272V264.622H196.66L196.716 265.77C196.903 265.481 197.118 265.247 197.36 265.07C197.612 264.893 197.888 264.762 198.186 264.678C198.494 264.585 198.826 264.538 199.18 264.538C199.246 264.538 199.306 264.538 199.362 264.538C199.428 264.538 199.493 264.538 199.558 264.538V265.658H199.124C198.546 265.658 198.074 265.784 197.71 266.036C197.356 266.279 197.099 266.61 196.94 267.03C196.782 267.441 196.702 267.898 196.702 268.402V272H195.512ZM200.735 272V264.622H201.925V272H200.735ZM201.323 263.53C201.08 263.53 200.884 263.455 200.735 263.306C200.595 263.157 200.525 262.965 200.525 262.732C200.525 262.499 200.6 262.312 200.749 262.172C200.898 262.023 201.09 261.948 201.323 261.948C201.538 261.948 201.724 262.023 201.883 262.172C202.051 262.321 202.135 262.508 202.135 262.732C202.135 262.965 202.056 263.157 201.897 263.306C201.738 263.455 201.547 263.53 201.323 263.53ZM206.569 272.084C205.795 272.084 205.249 271.874 204.931 271.454C204.623 271.034 204.469 270.437 204.469 269.662V265.672H203.265V264.622H204.469V262.41H205.659V264.622H207.927V265.672H205.659V269.508C205.659 269.788 205.683 270.045 205.729 270.278C205.776 270.502 205.874 270.684 206.023 270.824C206.173 270.955 206.397 271.025 206.695 271.034C206.91 271.034 207.097 270.997 207.255 270.922C207.423 270.847 207.563 270.759 207.675 270.656L208.193 271.524C208.035 271.655 207.867 271.762 207.689 271.846C207.521 271.93 207.344 271.991 207.157 272.028C206.98 272.065 206.784 272.084 206.569 272.084ZM212.596 275.304C212.027 275.304 211.476 275.225 210.944 275.066C210.421 274.907 209.95 274.632 209.53 274.24L210.048 273.302C210.412 273.591 210.799 273.82 211.21 273.988C211.63 274.156 212.069 274.24 212.526 274.24C213.291 274.24 213.837 274.016 214.164 273.568C214.5 273.129 214.668 272.569 214.668 271.888V271.006C214.5 271.258 214.285 271.468 214.024 271.636C213.772 271.795 213.492 271.916 213.184 272C212.876 272.075 212.559 272.112 212.232 272.112C211.504 272.112 210.93 271.967 210.51 271.678C210.09 271.389 209.791 270.987 209.614 270.474C209.437 269.961 209.348 269.368 209.348 268.696V264.622H210.538V268.36C210.538 268.696 210.557 269.027 210.594 269.354C210.641 269.671 210.729 269.961 210.86 270.222C210.991 270.474 211.182 270.679 211.434 270.838C211.686 270.987 212.022 271.062 212.442 271.062C212.974 271.062 213.399 270.931 213.716 270.67C214.043 270.409 214.276 270.059 214.416 269.62C214.565 269.181 214.64 268.696 214.64 268.164V264.622H215.83V272C215.83 272.532 215.76 273.003 215.62 273.414C215.48 273.825 215.27 274.17 214.99 274.45C214.71 274.73 214.369 274.94 213.968 275.08C213.576 275.229 213.119 275.304 212.596 275.304Z" fill="#535353"/>
</svg>
