<svg width="160" height="80" viewBox="0 0 160 80" fill="none" xmlns="http://www.w3.org/2000/svg">
<path d="M0 17.4444C0 11.3383 0 8.28525 1.18833 5.95302C2.23362 3.90153 3.90153 2.23362 5.95302 1.18833C8.28525 0 11.3383 0 17.4444 0H52.5556C58.6617 0 61.7147 0 64.047 1.18833C66.0985 2.23362 67.7664 3.90153 68.8117 5.95302C70 8.28525 70 11.3383 70 17.4444V80H0V17.4444Z" fill="#AAD3FF"/>
<path d="M89 72.4444C89 66.3383 89 63.2853 90.1883 60.953C91.2336 58.9015 92.9015 57.2336 94.953 56.1883C97.2853 55 100.338 55 106.444 55H142.556C148.662 55 151.715 55 154.047 56.1883C156.098 57.2336 157.766 58.9015 158.812 60.953C160 63.2853 160 66.3383 160 72.4444V80H89V72.4444Z" fill="#E2E9F0"/>
</svg>
